<?xml version="1.0"?>
<svg version="1.1" xmlns="http://www.w3.org/2000/svg" width="400" height="200" style=""><path fill="#ff0000" d="M16.34033203125,91.93603515625q0-1.5380859375,0.52734375-2.0654296875t1.47216796875-0.52734375q0.263671875,0,0.560302734375,0.0439453125t0.560302734375,0.1318359375q1.47216796875-0.28564453125,2.79052734375-0.28564453125q2.13134765625,0,3.8671875,0.7470703125q2.79052734375,1.1865234375,4.6142578125,3.515625t2.6806640625,5.47119140625t0.85693359375,6.43798828125q0,1.845703125-0.252685546875,3.84521484375t-0.977783203125,3.71337890625q-0.63720703125,1.5380859375-1.7578125,3.218994140625t-2.537841796875,3.18603515625t-3.05419921875,2.63671875t-3.306884765625,1.527099609375l0,0.17578125q0,0.439453125-0.230712890625,0.714111328125t-0.560302734375,0.41748046875t-0.758056640625,0.186767578125t-0.802001953125,0.0439453125q-0.2197265625,0-0.626220703125-0.0439453125t-0.791015625-0.164794921875t-0.648193359375-0.318603515625t-0.263671875-0.54931640625q0-3.9990234375-0.208740234375-8.009033203125t-0.472412109375-8.02001953125t-0.472412109375-8.009033203125t-0.208740234375-8.02001953125z M20.4931640625,90.8154296875q0.2197265625,2.109375,0.28564453125,4.207763671875t0.19775390625,4.207763671875q0.3515625,5.44921875,0.81298828125,10.843505859375t0.54931640625,10.843505859375q2.109375-1.38427734375,3.614501953125-3.1640625t2.471923828125-3.8671875t1.417236328125-4.383544921875t0.450439453125-4.735107421875q0-1.7578125-0.3076171875-3.8671875t-1.0546875-4.06494140625t-2.010498046875-3.53759765625t-3.153076171875-2.26318359375q-0.3955078125-0.1318359375-0.955810546875-0.2197265625t-1.790771484375-0.087890625q-0.1318359375,0-0.263671875,0.0439453125t-0.263671875,0.0439453125z M38.745190429688,115.205078125q0-1.5380859375,0.340576171875-3.62548828125t1.153564453125-3.955078125t2.142333984375-3.175048828125t3.350830078125-1.307373046875q1.8896484375,0,2.83447265625,1.087646484375t0.94482421875,2.933349609375q0,1.20849609375-0.450439453125,2.647705078125t-1.285400390625,2.724609375t-1.9775390625,2.142333984375t-2.548828125,0.85693359375l-0.5712890625-0.0439453125q0,0.59326171875,0.17578125,1.593017578125t0.516357421875,1.988525390625t0.87890625,1.73583984375t1.307373046875,0.7470703125q1.12060546875,0,2.1533203125-0.90087890625t1.95556640625-1.99951171875t1.7138671875-1.99951171875t1.4501953125-0.90087890625q0.3515625,0,0.72509765625,0.10986328125t0.41748046875,0.615234375q0,0.3076171875-0.164794921875,0.50537109375t-0.296630859375,0.439453125q-0.68115234375,1.16455078125-1.483154296875,2.21923828125t-1.812744140625,1.91162109375t-2.208251953125,1.351318359375t-2.647705078125,0.494384765625q-1.8896484375,0-3.14208984375-0.670166015625t-2.021484375-1.8017578125t-1.109619140625-2.61474609375t-0.340576171875-3.109130859375z M42.678295898438,113.53515625l0.615234375,0.54931640625q0.439453125,0.3955078125,0.87890625,0.17578125t0.791015625-0.802001953125t0.648193359375-1.439208984375t0.52734375-1.7578125t0.340576171875-1.7578125t0.10986328125-1.42822265625l0-0.7470703125t-0.06591796875-0.791015625t-0.230712890625-0.626220703125t-0.516357421875-0.318603515625q-0.10986328125-0.02197265625-0.19775390625-0.02197265625q-0.7470703125,0-1.2744140625,0.94482421875q-0.5712890625,1.0546875-0.9228515625,2.559814453125t-0.50537109375,3.087158203125t-0.19775390625,2.373046875z M57.107080078125,115.205078125q0-1.5380859375,0.340576171875-3.62548828125t1.153564453125-3.955078125t2.142333984375-3.175048828125t3.350830078125-1.307373046875q1.8896484375,0,2.83447265625,1.087646484375t0.94482421875,2.933349609375q0,1.20849609375-0.450439453125,2.647705078125t-1.285400390625,2.724609375t-1.9775390625,2.142333984375t-2.548828125,0.85693359375l-0.5712890625-0.0439453125q0,0.59326171875,0.17578125,1.593017578125t0.516357421875,1.988525390625t0.87890625,1.73583984375t1.307373046875,0.7470703125q1.12060546875,0,2.1533203125-0.90087890625t1.95556640625-1.99951171875t1.7138671875-1.99951171875t1.4501953125-0.90087890625q0.3515625,0,0.72509765625,0.10986328125t0.41748046875,0.615234375q0,0.3076171875-0.164794921875,0.50537109375t-0.296630859375,0.439453125q-0.68115234375,1.16455078125-1.483154296875,2.21923828125t-1.812744140625,1.91162109375t-2.208251953125,1.351318359375t-2.647705078125,0.494384765625q-1.8896484375,0-3.14208984375-0.670166015625t-2.021484375-1.8017578125t-1.109619140625-2.61474609375t-0.340576171875-3.109130859375z M61.040185546875,113.53515625l0.615234375,0.54931640625q0.439453125,0.3955078125,0.87890625,0.17578125t0.791015625-0.802001953125t0.648193359375-1.439208984375t0.52734375-1.7578125t0.340576171875-1.7578125t0.10986328125-1.42822265625l0-0.7470703125t-0.06591796875-0.791015625t-0.230712890625-0.626220703125t-0.516357421875-0.318603515625q-0.10986328125-0.02197265625-0.19775390625-0.02197265625q-0.7470703125,0-1.2744140625,0.94482421875q-0.5712890625,1.0546875-0.9228515625,2.559814453125t-0.50537109375,3.087158203125t-0.19775390625,2.373046875z M75.468969726563,106.35009765625q0-1.03271484375,0.406494140625-1.527099609375t1.483154296875-0.494384765625q0.63720703125,0,1.197509765625,0.263671875t0.560302734375,1.12060546875q0.087890625,1.25244140625,0.087890625,2.625732421875t0.24169921875,2.603759765625q0.54931640625-0.90087890625,1.241455078125-1.8017578125t1.527099609375-1.60400390625t1.82373046875-1.131591796875t2.1533203125-0.428466796875q1.58203125,0,2.6806640625,0.6591796875t1.812744140625,1.7138671875t1.03271484375,2.384033203125t0.318603515625,2.669677734375q0,2.0654296875-0.626220703125,3.372802734375t-1.658935546875,2.054443359375t-2.340087890625,1.0107421875t-2.625732421875,0.263671875q-1.16455078125,0-2.17529296875-0.450439453125t-1.40625-1.702880859375q0-0.3515625,0.516357421875-0.439453125t0.736083984375-0.087890625q0.72509765625,0,1.07666015625,0.3955078125q0.263671875,0.3076171875,0.582275390625,0.626220703125t0.670166015625,0.318603515625q0.68115234375,0,1.42822265625-0.384521484375t1.373291015625-1.0107421875t1.0546875-1.483154296875t0.428466796875-1.7578125q0-0.76904296875-0.1318359375-1.91162109375t-0.450439453125-2.197265625t-0.87890625-1.82373046875t-1.417236328125-0.76904296875q-1.29638671875,0-2.340087890625,1.1865234375t-1.73583984375,2.8564453125t-1.07666015625,3.4716796875t-0.384521484375,3.01025390625t0.15380859375,3.05419921875t0.318603515625,3.834228515625t0.318603515625,3.834228515625t0.15380859375,3.05419921875q0,0.3076171875-0.252685546875,0.494384765625t-0.604248046875,0.296630859375t-0.714111328125,0.1318359375t-0.538330078125,0.02197265625q-0.59326171875,0-1.241455078125-0.1318359375t-0.889892578125-0.81298828125q-0.3076171875-1.07666015625-0.5712890625-3.065185546875t-0.472412109375-4.39453125t-0.362548828125-5.0537109375t-0.263671875-5.108642578125t-0.164794921875-4.50439453125t-0.054931640625-3.251953125z M105.09558105469,91.93603515625q0-1.5380859375,0.52734375-2.0654296875t1.47216796875-0.52734375q0.263671875,0,0.560302734375,0.0439453125t0.560302734375,0.1318359375q1.47216796875-0.28564453125,2.79052734375-0.28564453125q2.13134765625,0,3.8671875,0.7470703125q2.79052734375,1.1865234375,4.6142578125,3.515625t2.6806640625,5.47119140625t0.85693359375,6.43798828125q0,1.845703125-0.252685546875,3.84521484375t-0.977783203125,3.71337890625q-0.63720703125,1.5380859375-1.7578125,3.218994140625t-2.537841796875,3.18603515625t-3.05419921875,2.63671875t-3.306884765625,1.527099609375l0,0.17578125q0,0.439453125-0.230712890625,0.714111328125t-0.560302734375,0.41748046875t-0.758056640625,0.186767578125t-0.802001953125,0.0439453125q-0.2197265625,0-0.626220703125-0.0439453125t-0.791015625-0.164794921875t-0.648193359375-0.318603515625t-0.263671875-0.54931640625q0-3.9990234375-0.208740234375-8.009033203125t-0.472412109375-8.02001953125t-0.472412109375-8.009033203125t-0.208740234375-8.02001953125z M109.24841308594,90.8154296875q0.2197265625,2.109375,0.28564453125,4.207763671875t0.19775390625,4.207763671875q0.3515625,5.44921875,0.81298828125,10.843505859375t0.54931640625,10.843505859375q2.109375-1.38427734375,3.614501953125-3.1640625t2.471923828125-3.8671875t1.417236328125-4.383544921875t0.450439453125-4.735107421875q0-1.7578125-0.3076171875-3.8671875t-1.0546875-4.06494140625t-2.010498046875-3.53759765625t-3.153076171875-2.26318359375q-0.3955078125-0.1318359375-0.955810546875-0.2197265625t-1.790771484375-0.087890625q-0.1318359375,0-0.263671875,0.0439453125t-0.263671875,0.0439453125z M127.50043945312,115.205078125q0-1.5380859375,0.340576171875-3.62548828125t1.153564453125-3.955078125t2.142333984375-3.175048828125t3.350830078125-1.307373046875q1.8896484375,0,2.83447265625,1.087646484375t0.94482421875,2.933349609375q0,1.20849609375-0.450439453125,2.647705078125t-1.285400390625,2.724609375t-1.9775390625,2.142333984375t-2.548828125,0.85693359375l-0.5712890625-0.0439453125q0,0.59326171875,0.17578125,1.593017578125t0.516357421875,1.988525390625t0.87890625,1.73583984375t1.307373046875,0.7470703125q1.12060546875,0,2.1533203125-0.90087890625t1.95556640625-1.99951171875t1.7138671875-1.99951171875t1.4501953125-0.90087890625q0.3515625,0,0.72509765625,0.10986328125t0.41748046875,0.615234375q0,0.3076171875-0.164794921875,0.50537109375t-0.296630859375,0.439453125q-0.68115234375,1.16455078125-1.483154296875,2.21923828125t-1.812744140625,1.91162109375t-2.208251953125,1.351318359375t-2.647705078125,0.494384765625q-1.8896484375,0-3.14208984375-0.670166015625t-2.021484375-1.8017578125t-1.109619140625-2.61474609375t-0.340576171875-3.109130859375z M131.43354492187,113.53515625l0.615234375,0.54931640625q0.439453125,0.3955078125,0.87890625,0.17578125t0.791015625-0.802001953125t0.648193359375-1.439208984375t0.52734375-1.7578125t0.340576171875-1.7578125t0.10986328125-1.42822265625l0-0.7470703125t-0.06591796875-0.791015625t-0.230712890625-0.626220703125t-0.516357421875-0.318603515625q-0.10986328125-0.02197265625-0.19775390625-0.02197265625q-0.7470703125,0-1.2744140625,0.94482421875q-0.5712890625,1.0546875-0.9228515625,2.559814453125t-0.50537109375,3.087158203125t-0.19775390625,2.373046875z M144.96145019531,106.13037109375q0-0.17578125,0.208740234375-0.318603515625t0.472412109375-0.208740234375t0.538330078125-0.087890625t0.406494140625-0.02197265625q0.98876953125,0,1.69189453125,0.87890625t1.219482421875,2.252197265625t0.87890625,3.0322265625t0.692138671875,3.306884765625t0.648193359375,3.021240234375t0.714111328125,2.120361328125q0.68115234375-1.34033203125,1.241455078125-3.22998046875t1.03271484375-3.9111328125t0.8349609375-3.988037109375t0.582275390625-3.438720703125q0.087890625-0.3955078125,0.54931640625-0.494384765625t0.76904296875-0.098876953125q0.50537109375,0,0.87890625,0.142822265625t0.37353515625,0.626220703125q0,0.81298828125-0.19775390625,2.208251953125t-0.538330078125,3.131103515625t-0.791015625,3.5595703125t-0.966796875,3.460693359375t-1.07666015625,2.900390625t-1.109619140625,1.790771484375q-0.263671875,0.3076171875-0.823974609375,0.428466796875t-0.933837890625,0.120849609375q-1.29638671875,0-2.1533203125-0.68115234375l0,0.0439453125q-1.34033203125-1.25244140625-1.9775390625-3.05419921875t-0.9228515625-3.75732421875t-0.516357421875-3.88916015625t-0.780029296875-3.515625q-0.087890625-0.17578125-0.2197265625-0.516357421875t-0.3076171875-0.68115234375t-0.296630859375-0.648193359375t-0.120849609375-0.4833984375z M162.290625,113.77685546875q0-2.021484375,0.472412109375-3.966064453125t0.802001953125-3.878173828125q0.087890625-0.50537109375,0.692138671875-0.626220703125t1.021728515625-0.120849609375q0.72509765625,0,1.16455078125,0.2197265625q0.17578125,0.087890625,0.32958984375,0.19775390625t0.15380859375,0.28564453125q0,1.8896484375-0.450439453125,3.69140625t-0.450439453125,3.8232421875q0,0.68115234375,0.098876953125,1.285400390625t0.186767578125,1.197509765625l0.1318359375,0.63720703125q0,0.17578125,0.02197265625,0.3076171875t0.06591796875,0.3076171875q0,0.3955078125-0.560302734375,0.538330078125t-0.977783203125,0.142822265625q-0.63720703125,0-1.175537109375-0.252685546875t-0.845947265625-0.867919921875l-0.3076171875-0.63720703125q-0.263671875-0.50537109375-0.263671875-1.131591796875t-0.10986328125-1.153564453125z M163.696875,100.54931640625l0-0.41748046875q0-1.03271484375,0.516357421875-1.845703125t1.549072265625-0.81298828125q0.1318359375,0,0.252685546875,0.02197265625t0.252685546875,0.02197265625q0.263671875,0.0439453125,0.692138671875,0.208740234375t0.428466796875,0.516357421875l0,0.0439453125q-0.087890625,0.17578125-0.10986328125,0.362548828125t-0.10986328125,0.318603515625l0.0439453125-0.0439453125q-0.263671875,0.68115234375-0.428466796875,1.0986328125t-0.362548828125,0.670166015625t-0.494384765625,0.362548828125t-0.845947265625,0.10986328125q-0.087890625,0-0.3076171875-0.02197265625t-0.472412109375-0.087890625t-0.428466796875-0.17578125t-0.17578125-0.32958984375z M171.88542480469,122.1044921875q0-0.63720703125,0.054931640625-1.34033203125t0.098876953125-1.318359375l0.1318359375-3.2958984375q0.2197265625-3.955078125,0.538330078125-7.7783203125t0.538330078125-7.734375q0.1318359375-2.1533203125,0.19775390625-4.229736328125t0.19775390625-4.229736328125q-0.087890625-0.17578125-0.087890625-0.24169921875q0-0.3076171875,0.230712890625-0.4833984375t0.538330078125-0.296630859375t0.648193359375-0.164794921875t0.516357421875-0.0439453125l0.50537109375,0q0.68115234375,0.087890625,0.98876953125,0.428466796875t0.3955078125,0.81298828125t0.0439453125,1.0107421875t-0.0439453125,0.999755859375q0,3.18603515625-0.15380859375,6.492919921875t-0.3515625,6.6357421875t-0.362548828125,6.65771484375t-0.164794921875,6.580810546875l0,1.5380859375q0,1.03271484375-0.582275390625,1.3623046875t-1.614990234375,0.32958984375q-0.90087890625,0-1.58203125-0.3955078125t-0.68115234375-1.29638671875z M181.96362304688,115.205078125q0-1.5380859375,0.340576171875-3.62548828125t1.153564453125-3.955078125t2.142333984375-3.175048828125t3.350830078125-1.307373046875q1.8896484375,0,2.83447265625,1.087646484375t0.94482421875,2.933349609375q0,1.20849609375-0.450439453125,2.647705078125t-1.285400390625,2.724609375t-1.9775390625,2.142333984375t-2.548828125,0.85693359375l-0.5712890625-0.0439453125q0,0.59326171875,0.17578125,1.593017578125t0.516357421875,1.988525390625t0.87890625,1.73583984375t1.307373046875,0.7470703125q1.12060546875,0,2.1533203125-0.90087890625t1.95556640625-1.99951171875t1.7138671875-1.99951171875t1.4501953125-0.90087890625q0.3515625,0,0.72509765625,0.10986328125t0.41748046875,0.615234375q0,0.3076171875-0.164794921875,0.50537109375t-0.296630859375,0.439453125q-0.68115234375,1.16455078125-1.483154296875,2.21923828125t-1.812744140625,1.91162109375t-2.208251953125,1.351318359375t-2.647705078125,0.494384765625q-1.8896484375,0-3.14208984375-0.670166015625t-2.021484375-1.8017578125t-1.109619140625-2.61474609375t-0.340576171875-3.109130859375z M185.89672851563,113.53515625l0.615234375,0.54931640625q0.439453125,0.3955078125,0.87890625,0.17578125t0.791015625-0.802001953125t0.648193359375-1.439208984375t0.52734375-1.7578125t0.340576171875-1.7578125t0.10986328125-1.42822265625l0-0.7470703125t-0.06591796875-0.791015625t-0.230712890625-0.626220703125t-0.516357421875-0.318603515625q-0.10986328125-0.02197265625-0.19775390625-0.02197265625q-0.7470703125,0-1.2744140625,0.94482421875q-0.5712890625,1.0546875-0.9228515625,2.559814453125t-0.50537109375,3.087158203125t-0.19775390625,2.373046875z"/><path fill="#" d=""/></svg>
