<?xml version="1.0"?>
<svg version="1.1" xmlns="http://www.w3.org/2000/svg" width="400" height="200" style=""><path fill="#784a4a" d="M16.4892578125,91.0400390625q0-1.708984375,0.5859375-2.294921875t1.6357421875-0.5859375q0.29296875,0,0.62255859375,0.048828125t0.62255859375,0.146484375q1.6357421875-0.3173828125,3.1005859375-0.3173828125q2.3681640625,0,4.296875,0.830078125q3.1005859375,1.318359375,5.126953125,3.90625t2.978515625,6.0791015625t0.9521484375,7.1533203125q0,2.05078125-0.28076171875,4.2724609375t-1.08642578125,4.1259765625q-0.7080078125,1.708984375-1.953125,3.57666015625t-2.81982421875,3.5400390625t-3.3935546875,2.9296875t-3.67431640625,1.69677734375l0,0.1953125q0,0.48828125-0.25634765625,0.79345703125t-0.62255859375,0.4638671875t-0.84228515625,0.20751953125t-0.89111328125,0.048828125q-0.244140625,0-0.69580078125-0.048828125t-0.87890625-0.18310546875t-0.72021484375-0.35400390625t-0.29296875-0.6103515625q0-4.443359375-0.23193359375-8.89892578125t-0.52490234375-8.9111328125t-0.52490234375-8.89892578125t-0.23193359375-8.9111328125z M21.103515625,89.794921875q0.244140625,2.34375,0.3173828125,4.67529296875t0.2197265625,4.67529296875q0.390625,6.0546875,0.9033203125,12.04833984375t0.6103515625,12.04833984375q2.34375-1.5380859375,4.01611328125-3.515625t2.74658203125-4.296875t1.57470703125-4.87060546875t0.50048828125-5.26123046875q0-1.953125-0.341796875-4.296875t-1.171875-4.5166015625t-2.23388671875-3.9306640625t-3.50341796875-2.5146484375q-0.439453125-0.146484375-1.06201171875-0.244140625t-1.98974609375-0.09765625q-0.146484375,0-0.29296875,0.048828125t-0.29296875,0.048828125z M41.383544921875,116.89453125q0-1.708984375,0.37841796875-4.0283203125t1.28173828125-4.39453125t2.38037109375-3.52783203125t3.72314453125-1.45263671875q2.099609375,0,3.1494140625,1.20849609375t1.0498046875,3.25927734375q0,1.3427734375-0.50048828125,2.94189453125t-1.42822265625,3.02734375t-2.197265625,2.38037109375t-2.83203125,0.9521484375l-0.634765625-0.048828125q0,0.6591796875,0.1953125,1.77001953125t0.57373046875,2.20947265625t0.9765625,1.9287109375t1.45263671875,0.830078125q1.2451171875,0,2.392578125-1.0009765625t2.1728515625-2.2216796875t1.904296875-2.2216796875t1.611328125-1.0009765625q0.390625,0,0.8056640625,0.1220703125t0.4638671875,0.68359375q0,0.341796875-0.18310546875,0.5615234375t-0.32958984375,0.48828125q-0.7568359375,1.2939453125-1.64794921875,2.4658203125t-2.01416015625,2.1240234375t-2.45361328125,1.50146484375t-2.94189453125,0.54931640625q-2.099609375,0-3.4912109375-0.74462890625t-2.24609375-2.001953125t-1.23291015625-2.9052734375t-0.37841796875-3.45458984375z M45.753662109375,115.0390625l0.68359375,0.6103515625q0.48828125,0.439453125,0.9765625,0.1953125t0.87890625-0.89111328125t0.72021484375-1.59912109375t0.5859375-1.953125t0.37841796875-1.953125t0.1220703125-1.5869140625l0-0.830078125t-0.0732421875-0.87890625t-0.25634765625-0.69580078125t-0.57373046875-0.35400390625q-0.1220703125-0.0244140625-0.2197265625-0.0244140625q-0.830078125,0-1.416015625,1.0498046875q-0.634765625,1.171875-1.025390625,2.84423828125t-0.5615234375,3.43017578125t-0.2197265625,2.63671875z M61.78564453125,116.89453125q0-1.708984375,0.37841796875-4.0283203125t1.28173828125-4.39453125t2.38037109375-3.52783203125t3.72314453125-1.45263671875q2.099609375,0,3.1494140625,1.20849609375t1.0498046875,3.25927734375q0,1.3427734375-0.50048828125,2.94189453125t-1.42822265625,3.02734375t-2.197265625,2.38037109375t-2.83203125,0.9521484375l-0.634765625-0.048828125q0,0.6591796875,0.1953125,1.77001953125t0.57373046875,2.20947265625t0.9765625,1.9287109375t1.45263671875,0.830078125q1.2451171875,0,2.392578125-1.0009765625t2.1728515625-2.2216796875t1.904296875-2.2216796875t1.611328125-1.0009765625q0.390625,0,0.8056640625,0.1220703125t0.4638671875,0.68359375q0,0.341796875-0.18310546875,0.5615234375t-0.32958984375,0.48828125q-0.7568359375,1.2939453125-1.64794921875,2.4658203125t-2.01416015625,2.1240234375t-2.45361328125,1.50146484375t-2.94189453125,0.54931640625q-2.099609375,0-3.4912109375-0.74462890625t-2.24609375-2.001953125t-1.23291015625-2.9052734375t-0.37841796875-3.45458984375z M66.15576171875,115.0390625l0.68359375,0.6103515625q0.48828125,0.439453125,0.9765625,0.1953125t0.87890625-0.89111328125t0.72021484375-1.59912109375t0.5859375-1.953125t0.37841796875-1.953125t0.1220703125-1.5869140625l0-0.830078125t-0.0732421875-0.87890625t-0.25634765625-0.69580078125t-0.57373046875-0.35400390625q-0.1220703125-0.0244140625-0.2197265625-0.0244140625q-0.830078125,0-1.416015625,1.0498046875q-0.634765625,1.171875-1.025390625,2.84423828125t-0.5615234375,3.43017578125t-0.2197265625,2.63671875z M82.187744140625,107.0556640625q0-1.1474609375,0.45166015625-1.69677734375t1.64794921875-0.54931640625q0.7080078125,0,1.33056640625,0.29296875t0.62255859375,1.2451171875q0.09765625,1.3916015625,0.09765625,2.91748046875t0.2685546875,2.89306640625q0.6103515625-1.0009765625,1.37939453125-2.001953125t1.69677734375-1.7822265625t2.0263671875-1.25732421875t2.392578125-0.47607421875q1.7578125,0,2.978515625,0.732421875t2.01416015625,1.904296875t1.1474609375,2.64892578125t0.35400390625,2.96630859375q0,2.294921875-0.69580078125,3.74755859375t-1.84326171875,2.28271484375t-2.60009765625,1.123046875t-2.91748046875,0.29296875q-1.2939453125,0-2.4169921875-0.50048828125t-1.5625-1.89208984375q0-0.390625,0.57373046875-0.48828125t0.81787109375-0.09765625q0.8056640625,0,1.1962890625,0.439453125q0.29296875,0.341796875,0.64697265625,0.69580078125t0.74462890625,0.35400390625q0.7568359375,0,1.5869140625-0.42724609375t1.52587890625-1.123046875t1.171875-1.64794921875t0.47607421875-1.953125q0-0.8544921875-0.146484375-2.1240234375t-0.50048828125-2.44140625t-0.9765625-2.0263671875t-1.57470703125-0.8544921875q-1.4404296875,0-2.60009765625,1.318359375t-1.9287109375,3.173828125t-1.1962890625,3.857421875t-0.42724609375,3.3447265625t0.1708984375,3.3935546875t0.35400390625,4.26025390625t0.35400390625,4.26025390625t0.1708984375,3.3935546875q0,0.341796875-0.28076171875,0.54931640625t-0.67138671875,0.32958984375t-0.79345703125,0.146484375t-0.59814453125,0.0244140625q-0.6591796875,0-1.37939453125-0.146484375t-0.98876953125-0.9033203125q-0.341796875-1.1962890625-0.634765625-3.40576171875t-0.52490234375-4.8828125t-0.40283203125-5.615234375t-0.29296875-5.67626953125t-0.18310546875-5.0048828125t-0.06103515625-3.61328125z M115.10620117188,91.0400390625q0-1.708984375,0.5859375-2.294921875t1.6357421875-0.5859375q0.29296875,0,0.62255859375,0.048828125t0.62255859375,0.146484375q1.6357421875-0.3173828125,3.1005859375-0.3173828125q2.3681640625,0,4.296875,0.830078125q3.1005859375,1.318359375,5.126953125,3.90625t2.978515625,6.0791015625t0.9521484375,7.1533203125q0,2.05078125-0.28076171875,4.2724609375t-1.08642578125,4.1259765625q-0.7080078125,1.708984375-1.953125,3.57666015625t-2.81982421875,3.5400390625t-3.3935546875,2.9296875t-3.67431640625,1.69677734375l0,0.1953125q0,0.48828125-0.25634765625,0.79345703125t-0.62255859375,0.4638671875t-0.84228515625,0.20751953125t-0.89111328125,0.048828125q-0.244140625,0-0.69580078125-0.048828125t-0.87890625-0.18310546875t-0.72021484375-0.35400390625t-0.29296875-0.6103515625q0-4.443359375-0.23193359375-8.89892578125t-0.52490234375-8.9111328125t-0.52490234375-8.89892578125t-0.23193359375-8.9111328125z M119.72045898438,89.794921875q0.244140625,2.34375,0.3173828125,4.67529296875t0.2197265625,4.67529296875q0.390625,6.0546875,0.9033203125,12.04833984375t0.6103515625,12.04833984375q2.34375-1.5380859375,4.01611328125-3.515625t2.74658203125-4.296875t1.57470703125-4.87060546875t0.50048828125-5.26123046875q0-1.953125-0.341796875-4.296875t-1.171875-4.5166015625t-2.23388671875-3.9306640625t-3.50341796875-2.5146484375q-0.439453125-0.146484375-1.06201171875-0.244140625t-1.98974609375-0.09765625q-0.146484375,0-0.29296875,0.048828125t-0.29296875,0.048828125z M140.00048828125,116.89453125q0-1.708984375,0.37841796875-4.0283203125t1.28173828125-4.39453125t2.38037109375-3.52783203125t3.72314453125-1.45263671875q2.099609375,0,3.1494140625,1.20849609375t1.0498046875,3.25927734375q0,1.3427734375-0.50048828125,2.94189453125t-1.42822265625,3.02734375t-2.197265625,2.38037109375t-2.83203125,0.9521484375l-0.634765625-0.048828125q0,0.6591796875,0.1953125,1.77001953125t0.57373046875,2.20947265625t0.9765625,1.9287109375t1.45263671875,0.830078125q1.2451171875,0,2.392578125-1.0009765625t2.1728515625-2.2216796875t1.904296875-2.2216796875t1.611328125-1.0009765625q0.390625,0,0.8056640625,0.1220703125t0.4638671875,0.68359375q0,0.341796875-0.18310546875,0.5615234375t-0.32958984375,0.48828125q-0.7568359375,1.2939453125-1.64794921875,2.4658203125t-2.01416015625,2.1240234375t-2.45361328125,1.50146484375t-2.94189453125,0.54931640625q-2.099609375,0-3.4912109375-0.74462890625t-2.24609375-2.001953125t-1.23291015625-2.9052734375t-0.37841796875-3.45458984375z M144.37060546875,115.0390625l0.68359375,0.6103515625q0.48828125,0.439453125,0.9765625,0.1953125t0.87890625-0.89111328125t0.72021484375-1.59912109375t0.5859375-1.953125t0.37841796875-1.953125t0.1220703125-1.5869140625l0-0.830078125t-0.0732421875-0.87890625t-0.25634765625-0.69580078125t-0.57373046875-0.35400390625q-0.1220703125-0.0244140625-0.2197265625-0.0244140625q-0.830078125,0-1.416015625,1.0498046875q-0.634765625,1.171875-1.025390625,2.84423828125t-0.5615234375,3.43017578125t-0.2197265625,2.63671875z M159.40161132812,106.8115234375q0-0.1953125,0.23193359375-0.35400390625t0.52490234375-0.23193359375t0.59814453125-0.09765625t0.45166015625-0.0244140625q1.0986328125,0,1.8798828125,0.9765625t1.35498046875,2.50244140625t0.9765625,3.369140625t0.76904296875,3.67431640625t0.72021484375,3.35693359375t0.79345703125,2.35595703125q0.7568359375-1.4892578125,1.37939453125-3.5888671875t1.1474609375-4.345703125t0.927734375-4.43115234375t0.64697265625-3.82080078125q0.09765625-0.439453125,0.6103515625-0.54931640625t0.8544921875-0.10986328125q0.5615234375,0,0.9765625,0.15869140625t0.4150390625,0.69580078125q0,0.9033203125-0.2197265625,2.45361328125t-0.59814453125,3.47900390625t-0.87890625,3.955078125t-1.07421875,3.84521484375t-1.1962890625,3.22265625t-1.23291015625,1.98974609375q-0.29296875,0.341796875-0.91552734375,0.47607421875t-1.03759765625,0.13427734375q-1.4404296875,0-2.392578125-0.7568359375l0,0.048828125q-1.4892578125-1.3916015625-2.197265625-3.3935546875t-1.025390625-4.1748046875t-0.57373046875-4.3212890625t-0.86669921875-3.90625q-0.09765625-0.1953125-0.244140625-0.57373046875t-0.341796875-0.7568359375t-0.32958984375-0.72021484375t-0.13427734375-0.537109375z M178.65625,115.3076171875q0-2.24609375,0.52490234375-4.40673828125t0.89111328125-4.30908203125q0.09765625-0.5615234375,0.76904296875-0.69580078125t1.13525390625-0.13427734375q0.8056640625,0,1.2939453125,0.244140625q0.1953125,0.09765625,0.3662109375,0.2197265625t0.1708984375,0.3173828125q0,2.099609375-0.50048828125,4.1015625t-0.50048828125,4.248046875q0,0.7568359375,0.10986328125,1.42822265625t0.20751953125,1.33056640625l0.146484375,0.7080078125q0,0.1953125,0.0244140625,0.341796875t0.0732421875,0.341796875q0,0.439453125-0.62255859375,0.59814453125t-1.08642578125,0.15869140625q-0.7080078125,0-1.30615234375-0.28076171875t-0.93994140625-0.96435546875l-0.341796875-0.7080078125q-0.29296875-0.5615234375-0.29296875-1.25732421875t-0.1220703125-1.28173828125z M180.21875,100.6103515625l0-0.4638671875q0-1.1474609375,0.57373046875-2.05078125t1.72119140625-0.9033203125q0.146484375,0,0.28076171875,0.0244140625t0.28076171875,0.0244140625q0.29296875,0.048828125,0.76904296875,0.23193359375t0.47607421875,0.57373046875l0,0.048828125q-0.09765625,0.1953125-0.1220703125,0.40283203125t-0.1220703125,0.35400390625l0.048828125-0.048828125q-0.29296875,0.7568359375-0.47607421875,1.220703125t-0.40283203125,0.74462890625t-0.54931640625,0.40283203125t-0.93994140625,0.1220703125q-0.09765625,0-0.341796875-0.0244140625t-0.52490234375-0.09765625t-0.47607421875-0.1953125t-0.1953125-0.3662109375z M189.31713867188,124.560546875q0-0.7080078125,0.06103515625-1.4892578125t0.10986328125-1.46484375l0.146484375-3.662109375q0.244140625-4.39453125,0.59814453125-8.642578125t0.59814453125-8.59375q0.146484375-2.392578125,0.2197265625-4.69970703125t0.2197265625-4.69970703125q-0.09765625-0.1953125-0.09765625-0.2685546875q0-0.341796875,0.25634765625-0.537109375t0.59814453125-0.32958984375t0.72021484375-0.18310546875t0.57373046875-0.048828125l0.5615234375,0q0.7568359375,0.09765625,1.0986328125,0.47607421875t0.439453125,0.9033203125t0.048828125,1.123046875t-0.048828125,1.11083984375q0,3.5400390625-0.1708984375,7.21435546875t-0.390625,7.373046875t-0.40283203125,7.3974609375t-0.18310546875,7.31201171875l0,1.708984375q0,1.1474609375-0.64697265625,1.513671875t-1.79443359375,0.3662109375q-1.0009765625,0-1.7578125-0.439453125t-0.7568359375-1.4404296875z M210.02856445312,91.552734375q0-1.1474609375,0.28076171875-1.67236328125t0.8056640625-0.732421875t1.26953125-0.15869140625t1.74560546875,0.048828125q2.5390625,0,5.126953125,0.78125t4.6630859375,2.28271484375t3.3447265625,3.69873046875t1.26953125,5.0537109375q0,1.904296875-0.54931640625,3.60107421875t-1.55029296875,3.173828125t-2.34375,2.69775390625t-2.9541015625,2.1240234375q0.6591796875,0.6591796875,1.708984375,2.33154296875t2.0751953125,3.564453125t1.81884765625,3.67431640625t0.93994140625,2.685546875l-0.29296875,0.439453125q-0.6591796875,0.390625-1.5869140625,0.4150390625q-0.439453125,0-1.1474609375-0.10986328125t-0.9033203125-0.64697265625q-1.0009765625-2.8076171875-2.18505859375-5.7861328125t-2.91748046875-5.37109375l0-0.048828125q-0.6103515625,0.244140625-1.20849609375,0.47607421875t-1.20849609375,0.42724609375q0.1953125,2.7099609375,0.40283203125,5.33447265625t0.20751953125,5.31005859375q0,0.341796875-0.32958984375,0.54931640625t-0.74462890625,0.32958984375t-0.84228515625,0.1708984375t-0.69580078125,0.048828125q-0.244140625,0-0.69580078125-0.048828125t-0.86669921875-0.1708984375t-0.72021484375-0.35400390625t-0.30517578125-0.62255859375q0-2.7099609375-0.1220703125-5.40771484375t-0.2685546875-5.38330078125q-0.7568359375-0.48828125-0.7568359375-1.26953125q0-0.6103515625,0.5859375-0.830078125q-0.29296875-5.1513671875-0.67138671875-10.2783203125t-0.37841796875-10.3271484375z M214.44750976562,90.7958984375q0.341796875,5.2978515625,0.76904296875,10.4736328125t0.81787109375,10.4736328125q1.708984375-0.48828125,3.18603515625-1.69677734375t2.55126953125-2.72216796875t1.67236328125-3.2958984375t0.59814453125-3.5400390625q0-1.953125-0.78125-3.74755859375t-2.0751953125-3.13720703125q-1.318359375-1.3427734375-3.02734375-2.099609375q-1.513671875-0.6591796875-3.173828125-0.6591796875l-0.439453125,0z M233.04296875,116.357421875q0-1.3916015625,0.35400390625-2.86865234375t1.123046875-2.6611328125t1.94091796875-1.9287109375t2.83203125-0.74462890625q1.2451171875,0,2.62451171875,0.42724609375t2.52685546875,1.220703125t1.86767578125,1.94091796875t0.72021484375,2.5634765625q0,1.708984375-0.62255859375,3.2470703125t-1.74560546875,2.74658203125t-2.62451171875,1.904296875t-3.25927734375,0.69580078125q-1.4404296875,0-2.5146484375-0.52490234375t-1.79443359375-1.40380859375t-1.07421875-2.0751953125t-0.35400390625-2.5390625z M236.6318359375,116.30859375q0,0.439453125,0.13427734375,1.2939453125t0.40283203125,1.67236328125t0.69580078125,1.416015625t1.03759765625,0.54931640625q1.2939453125-0.146484375,2.13623046875-0.84228515625t1.3671875-1.69677734375t0.732421875-2.1728515625t0.20751953125-2.2216796875q0-1.3427734375-0.52490234375-2.24609375t-1.72119140625-1.46484375q0,0.048828125,0.048828125,0.048828125t0.048828125-0.048828125l-0.6103515625-0.146484375q-0.244140625-0.09765625-0.59814453125-0.2197265625t-0.69580078125-0.537109375q-0.9521484375,0.341796875-1.47705078125,0.87890625t-0.79345703125,1.30615234375t-0.32958984375,1.84326171875t-0.06103515625,2.587890625z M250.53979492188,113.7451171875q0-0.48828125,0.10986328125-1.2939453125t0.25634765625-1.59912109375t0.341796875-1.47705078125t0.4638671875-0.87890625q0.1953125-0.1953125,0.67138671875-0.390625t1.0009765625-0.28076171875t0.9765625,0.0732421875t0.54931640625,0.64697265625q-0.341796875,0.439453125-0.62255859375,1.50146484375t-0.42724609375,2.35595703125q-0.1220703125,1.0986328125-0.1220703125,2.2705078125l0,0.4150390625q0.0244140625,1.3671875,0.244140625,2.5146484375t0.67138671875,1.89208984375t1.25732421875,0.74462890625q1.708984375,0,3.125-1.57470703125t2.5146484375-3.84521484375t1.9287109375-4.82177734375t1.416015625-4.45556640625q0.146484375-0.5615234375,0.69580078125-0.7568359375t1.18408203125-0.13427734375t1.13525390625,0.30517578125t0.59814453125,0.5859375q-0.48828125,4.1015625-0.76904296875,8.203125t-0.28076171875,8.251953125q0,0.8056640625,0.0732421875,1.47705078125t-0.0732421875,1.1474609375t-0.64697265625,0.7568359375t-1.59912109375,0.28076171875q-0.244140625,0-0.62255859375-0.048828125t-0.78125-0.15869140625t-0.68359375-0.32958984375t-0.28076171875-0.5126953125q0-1.806640625,0.13427734375-3.7109375t0.37841796875-3.6865234375q-0.6591796875,0.9521484375-1.45263671875,1.89208984375t-1.74560546875,1.69677734375t-2.05078125,1.20849609375t-2.3681640625,0.45166015625q-1.806640625,0-2.84423828125-0.8544921875t-1.5625-2.13623046875t-0.6591796875-2.79541015625t-0.13427734375-2.9296875z M272.50439453125,100.390625q0-0.341796875,0.732421875-0.5859375t1.66015625-0.40283203125t1.79443359375-0.23193359375t1.18408203125-0.1220703125q0-0.6591796875,0.048828125-1.33056640625t0.2685546875-1.1962890625t0.69580078125-0.84228515625t1.33056640625-0.3173828125q0.7080078125,0,1.07421875,0.1708984375t0.78125,0.7080078125q0.09765625,0.29296875,0.09765625,0.5615234375l0,0.81787109375t-0.048828125,0.84228515625q0.9033203125-0.09765625,1.79443359375-0.23193359375t1.79443359375-0.13427734375q0.6591796875,0,0.9033203125,0.0244140625t0.48828125,0.5859375q0.1953125,0.5615234375-0.47607421875,0.8544921875t-1.611328125,0.439453125t-1.86767578125,0.2197265625t-1.123046875,0.0732421875q-0.29296875,4.19921875-0.59814453125,8.3251953125t-0.30517578125,8.3740234375q0,1.904296875,0.1220703125,3.9306640625t0.68359375,3.8330078125q0.146484375,0.5615234375,0.48828125,1.0498046875t0.341796875,1.0498046875q0,0.341796875-0.2685546875,0.537109375t-0.64697265625,0.32958984375t-0.7568359375,0.15869140625t-0.62255859375,0.0244140625q-1.5380859375,0-2.34375-1.1474609375t-1.15966796875-2.74658203125t-0.37841796875-3.28369140625t-0.0244140625-2.734375q0-2.1484375,0.08544921875-4.39453125t0.20751953125-4.443359375t0.341796875-4.296875t0.5126953125-3.90625q-0.8544921875,0.09765625-1.67236328125,0.2197265625t-1.67236328125,0.1220703125q-0.1953125,0-0.52490234375-0.0244140625t-0.62255859375-0.1220703125t-0.50048828125-0.2685546875t-0.20751953125-0.48828125z M291.17309570312,116.89453125q0-1.708984375,0.37841796875-4.0283203125t1.28173828125-4.39453125t2.38037109375-3.52783203125t3.72314453125-1.45263671875q2.099609375,0,3.1494140625,1.20849609375t1.0498046875,3.25927734375q0,1.3427734375-0.50048828125,2.94189453125t-1.42822265625,3.02734375t-2.197265625,2.38037109375t-2.83203125,0.9521484375l-0.634765625-0.048828125q0,0.6591796875,0.1953125,1.77001953125t0.57373046875,2.20947265625t0.9765625,1.9287109375t1.45263671875,0.830078125q1.2451171875,0,2.392578125-1.0009765625t2.1728515625-2.2216796875t1.904296875-2.2216796875t1.611328125-1.0009765625q0.390625,0,0.8056640625,0.1220703125t0.4638671875,0.68359375q0,0.341796875-0.18310546875,0.5615234375t-0.32958984375,0.48828125q-0.7568359375,1.2939453125-1.64794921875,2.4658203125t-2.01416015625,2.1240234375t-2.45361328125,1.50146484375t-2.94189453125,0.54931640625q-2.099609375,0-3.4912109375-0.74462890625t-2.24609375-2.001953125t-1.23291015625-2.9052734375t-0.37841796875-3.45458984375z M295.54321289062,115.0390625l0.68359375,0.6103515625q0.48828125,0.439453125,0.9765625,0.1953125t0.87890625-0.89111328125t0.72021484375-1.59912109375t0.5859375-1.953125t0.37841796875-1.953125t0.1220703125-1.5869140625l0-0.830078125t-0.0732421875-0.87890625t-0.25634765625-0.69580078125t-0.57373046875-0.35400390625q-0.1220703125-0.0244140625-0.2197265625-0.0244140625q-0.830078125,0-1.416015625,1.0498046875q-0.634765625,1.171875-1.025390625,2.84423828125t-0.5615234375,3.43017578125t-0.2197265625,2.63671875z M311.5751953125,109.0576171875q0-1.0009765625,0.35400390625-1.6845703125t1.50146484375-0.68359375q0.439453125,0,1.0986328125,0.13427734375t0.7568359375,0.67138671875q0.244140625,1.4404296875,0.2685546875,3.125t0.1708984375,3.173828125q0.5615234375-1.0986328125,1.4404296875-2.3681640625t2.001953125-2.34375t2.44140625-1.7822265625t2.685546875-0.7080078125q0.09765625,0,0.3662109375,0.0732421875t0.50048828125,0.20751953125t0.28076171875,0.30517578125t-0.2685546875,0.3173828125q-0.09765625,0.29296875-0.4150390625,0.35400390625t-0.5615234375,0.06103515625q-0.146484375,0-0.4638671875-0.1220703125q-1.806640625,0.9521484375-3.076171875,2.587890625t-2.0751953125,3.62548828125t-1.171875,4.19921875t-0.3662109375,4.30908203125q0,1.0498046875-0.47607421875,1.26953125t-1.52587890625,0.2197265625q-0.5615234375,0-1.18408203125-0.1220703125t-0.86669921875-0.78125q-0.439453125-1.3916015625-0.72021484375-3.1982421875t-0.42724609375-3.72314453125t-0.20751953125-3.77197265625t-0.06103515625-3.3447265625z"/><path fill="#" d=""/></svg>
